
      <svg data-logo="logo" xmlns="http://www.w3.org/2000/svg" viewBox="0 0 41 41">
        <g id="logogram" transform="translate(0, 0) rotate(0) "><path d="M20.9053 0.809967C9.85957 0.809967 0.905273 9.76427 0.905273 20.81C11.951 20.81 20.9053 11.8557 20.9053 0.809967Z" fill="#45D2B0"/><path d="M20.9053 40.81C31.951 40.81 40.9053 31.8557 40.9053 20.81C29.8596 20.81 20.9053 29.7643 20.9053 40.81Z" fill="#45D2B0"/><path d="M20.9053 0.809967C31.951 0.809967 40.9053 9.76427 40.9053 20.81C29.8596 20.81 20.9053 11.8557 20.9053 0.809967Z" fill="#23216E"/><path d="M20.9053 40.81C9.85957 40.81 0.905272 31.8557 0.905273 20.81C11.951 20.81 20.9053 29.7643 20.9053 40.81Z" fill="#23216E"/></g>
        <g id="logotype" transform="translate(41, 20.5)"></g>
        
      </svg>
    